# AST/ASF file generated using VICON BodyLanguage
# -----------------------------------------------
:version 1.10
:name VICON
:units
  mass 1.0
  length 0.45
  angle deg
:documentation
   .ast/.asf automatically generated from VICON data using
   VICON BodyBuilder and BodyLanguage model FoxedUp or BRILLIANT.MOD
:root
   order TX TY TZ RX RY RZ
   axis XYZ
   position 0 0 0  
   orientation 0 0 0 
:bonedata
  begin
     id 1 
     name lhipjoint
     direction 0.588788 -0.725889 0.355548 
     length 2.37778 
     axis 0 0 0  XYZ
  end
  begin
     id 2 
     name lfemur
     direction 0.34202 -0.939693 0  
     length 6.86393  
     axis 0 0 20  XYZ
    dof rx ry rz
    limits (-160.0 20.0)
           (-70.0 70.0)
           (-60.0 70.0)
  end
  begin
     id 3 
     name ltibia
     direction 0.34202 -0.939693 0   
     length 7.32851   
     axis 0 0 20   XYZ
    dof rx
    limits (-10.0 170.0)
  end
  begin
     id 4 
     name lfoot
     direction 0.0626533 -0.172138 0.983078   
     length 1.98929   
     axis -90 7.62852e-016 20   XYZ
    dof rx rz
    limits (-45.0 90.0)
           (-70.0 20.0)
  end
  begin
     id 5 
     name ltoes
     direction 1.53647e-011 -4.21734e-011 1   
     length 1.00479   
     axis -90 7.62852e-016 20   XYZ
    dof rx
    limits (-90.0 20.0)
  end
  begin
     id 6 
     name rhipjoint
     direction -0.59141 -0.724168 0.354705   
     length 2.38343  
     axis 0 0 0  XYZ 
  end
  begin
     id 7 
     name rfemur
     direction -0.34202 -0.939693 0   
     length 6.95589   
     axis 0 0 -20   XYZ
    dof rx ry rz
    limits (-160.0 20.0)
           (-70.0 70.0)
           (-70.0 60.0)
  end
  begin
     id 8 
     name rtibia
     direction -0.34202 -0.939693 0   
     length 7.32327   
     axis 0 0 -20   XYZ
    dof rx
    limits (-10.0 170.0)
 end
 begin
     id 9 
     name rfoot
     direction -0.0660461 -0.18146 0.981178   
     length 1.85272  
     axis -90 -7.62852e-016 -20   XYZ
    dof rx rz
    limits (-45.0 90.0)
           (-20.0 70.0)
  end
  begin
     id 10 
     name rtoes
     direction -1.53586e-011 -4.21988e-011 1   
     length 0.93746   
     axis -90 -7.62852e-016 -20   XYZ
    dof rx
    limits (-90.0 20.0)
  end
  begin
     id 11 
     name lowerback
     direction -0.0107982 0.991059 0.13299   
     length 1.98691   
     axis 0 0 0   XYZ
    dof rx ry rz
    limits (-20.0 45.0)
           (-30.0 30.0)
           (-30.0 30.0)
  end
  begin
     id 12 
     name upperback
     direction 0.0076296 0.999916 0.0104576   
     length 1.99501   
     axis 0 0 0   XYZ
    dof rx ry rz
    limits (-20.0 45.0)
           (-30.0 30.0)
           (-30.0 30.0)
  end
  begin
     id 13 
     name thorax
     direction 0.01176 0.998615 -0.0512909   
     length 2.03144   
     axis 0 0 0   XYZ
    dof rx ry rz
    limits (-20.0 45.0)
           (-30.0 30.0)
           (-30.0 30.0)
  end
  begin
     id 14 
     name lowerneck
     direction -0.0171909 0.999644 0.0204011   
     length 1.71818   
     axis 0 0 0   XYZ
    dof rx ry rz
    limits (-20.0 45.0)
           (-30.0 30.0)
           (-30.0 30.0)
  end
  begin
     id 15 
     name upperneck
     direction 0.0250902 0.997482 -0.0663316   
     length 1.66199   
     axis 0 0 0   XYZ
    dof rx ry rz
    limits (-20.0 45.0)
           (-30.0 30.0)
           (-30.0 30.0)
  end
  begin
     id 16
     name head
     direction 0.00881535 0.99956 -0.0283365  
     length 1.81545  
     axis 0 0 0   XYZ
    dof rx ry rz
    limits (-20.0 45.0)
           (-30.0 30.0)
           (-30.0 30.0)
  end
  begin
     id 17 
     name lclavicle
     direction 0.840411 0.486876 -0.238035  
     length 3.30409  
     axis 0 0 0   XYZ
    dof ry rz
    limits (-20.0 10.0)
           (0.0 20.0)
  end
  begin
     id 18 
     name lhumerus
     direction 1 -4.48977e-011 -5.16239e-027   
     length 4.62672   
     axis 180 -30 -90   XYZ
    dof rx ry rz
    limits (-60.0 90.0)
           (-90.0 90.0)
           (-90.0 90.0)
  end
  begin
     id 19
     name lradius
     direction 1 -4.48977e-011 -8.71171e-027   
     length 3.11018   
     axis 180 -30 -90   XYZ
    dof rx
    limits (-10.0 170.0)
  end
  begin
     id 20
     name lwrist
     direction 1 -4.48912e-011 -1.03764e-026   
     length 1.55509   
     axis 9.09556e-015 90 90   XYZ
    dof ry
    limits (-180.0 0.0)
 end
  begin
     id 21 
     name lhand
     direction 1 -4.49072e-011 -2.07528e-026   
     length 0.743834   
     axis 1.3242e-014 90 90   XYZ
    dof rx rz
    limits (-90.0 90.0)
           (-45.0 45.0)
  end
  begin
     id 22 
     name lfingers
     direction 1 -4.48909e-011 -4.15056e-026   
     length 0.599698   
     axis 2.64841e-014 90 90   XYZ
    dof rx
    limits (0.0 90.0)
  end
  begin
     id 23
     name lthumb
     direction 0.707107 -6.35013e-011 0.707107   
     length 0.86105   
     axis -90 45 2.85299e-015   XYZ
    dof rx rz
    limits (-45.0 45.0)
           (-45.0 45.0)
  end
  begin
     id 24 
     name rclavicle
     direction -0.835208 0.500237 -0.228452   
     length 3.2716  
     axis 0 0 0   XYZ 
    dof ry rz
    limits (-10.0 20.0)
           (-20.0 0.0)
  end
  begin
     id 25 
     name rhumerus
     direction -1 -4.48978e-011 -5.1953e-028  
     length 4.55919   
     axis 180 30 90   XYZ
    dof rx ry rz
    limits (-90.0 60.0)
           (-90.0 90.0)
           (-90.0 90.0)
  end
  begin
     id 26 
     name rradius
     direction -1 -4.48961e-011 -5.99546e-027   
     length 3.22748   
     axis 180 30 90   XYZ
    dof rx
    limits (-10.0 170.0)
  end
  begin
     id 27 
     name rwrist
     direction -1 -4.48986e-011 -1.03764e-026   
     length 1.61374   
     axis 9.09556e-015 -90 -90   XYZ
    dof ry
    limits (-180.0 0.0)
  end
  begin
     id 28
     name rhand
     direction -1 -4.4899e-011 -2.07528e-026   
     length 0.700882   
     axis 1.3242e-014 -90 -90   XYZ
    dof rx rz
    limits (-90.0 90.0)
           (-45.0 45.0)
  end
  begin
     id 29
     name rfingers
     direction -1 -4.48991e-011 -4.15056e-026   
     length 0.565069   
     axis 2.64841e-014 -90 -90   XYZ
    dof rx
    limits (0.0 90.0)
  end
  begin
     id 30
     name rthumb
     direction -0.707107 -6.34804e-011 0.707107   
     length 0.811329   
     axis -90 -45 -2.85299e-015   XYZ
    dof rx rz
    limits (-45.0 45.0)
           (-45.0 45.0)
  end
:hierarchy
  begin
    root lhipjoint rhipjoint lowerback
    lhipjoint lfemur
    lfemur ltibia
    ltibia lfoot
    lfoot ltoes
    rhipjoint rfemur
    rfemur rtibia
    rtibia rfoot
    rfoot rtoes
    lowerback upperback
    upperback thorax
    thorax lowerneck lclavicle rclavicle
    lowerneck upperneck
    upperneck head
    lclavicle lhumerus
    lhumerus lradius
    lradius lwrist
    lwrist lhand lthumb
    lhand lfingers
    rclavicle rhumerus
    rhumerus rradius
    rradius rwrist
    rwrist rhand rthumb
    rhand rfingers
  end

#!OML:ASF F:\VICON\USERDATA\INSTALL\SteveWalk\SteveWalk.ASF
:FULLY-SPECIFIED
:DEGREES
316
root 0.945998 16.1539 24.0144 15.9077 1.40664 2.31665
lowerback -13.9498 -1.81565 -2.71184
upperback -4.4575 -2.04174 0.277164
thorax 3.21805 -1.01004 1.48344
lowerneck -4.05366 -1.36631 -0.987408
upperneck 11.129 -2.0485 2.56044
head 4.43801 -0.929841 0.933924
rclavicle -3.0765e-015 -5.96354e-016
rhumerus -96.2035 -41.1232 5.06222
rradius 10.3124
rwrist 68.3429
rhand -14.0753 -35.8924
rfingers 7.12502
rthumb 12.0565 -65.5251
lclavicle -3.0765e-015 -5.96354e-016
lhumerus -21.1978 -7.18303 86.5772
lradius 39.8477
lwrist 7.10191
lhand -22.3097 -18.6237
lfingers 7.12502
lthumb 4.10969 11.3164
rfemur -48.633 -7.27586 22.8307
rtibia 35.1995
rfoot -12.1939 -6.69264
rtoes -16.8187
lfemur -14.1899 4.0824 -24.4862
ltibia 28.2878
lfoot -27.4158 -6.79825
ltoes -8.5043
317
root 0.930994 16.1462 24.2189 15.9911 1.90776 2.40624
lowerback -13.9195 -1.90106 -2.72454
upperback -4.39947 -2.15133 0.250668
thorax 3.26723 -1.0653 1.44429
lowerneck -4.2977 -1.45969 -0.975794
upperneck 11.0855 -2.18863 2.69645
head 4.47693 -0.990131 0.969604
rclavicle -8.85058e-015 -9.14409e-015
rhumerus -94.5632 -40.465 2.19363
rradius 10.4628
rwrist 65.5155
rhand -14.1644 -35.8556
rfingers 7.12502
rthumb 11.9706 -65.4933
lclavicle -8.85058e-015 -9.14409e-015
lhumerus -20.2288 -8.48837 86.5433
lradius 41.2253
lwrist 8.31238
lhand -22.2296 -18.8149
lfingers 7.12502
lthumb 4.18703 11.1237
rfemur -48.5571 -7.41012 22.6898
rtibia 31.8851
rfoot -12.3204 -6.20985
rtoes -14.5894
lfemur -13.0043 4.0507 -24.3197
ltibia 27.1452
lfoot -27.1822 -7.2896
ltoes -9.06441
318
root 0.916289 16.1378 24.4254 15.9619 2.30803 2.55139
lowerback -13.7521 -1.95559 -2.80179
upperback -4.44935 -2.217 0.21539
thorax 3.12883 -1.09577 1.44569
lowerneck -3.84951 -1.5132 -1.10722
upperneck 10.7736 -2.27382 2.97933
head 4.28353 -1.02983 1.08488
rclavicle 2.71357e-014 -2.38542e-015
rhumerus -93.5482 -39.5375 0.28783
rradius 10.5828
rwrist 63.5477
rhand -14.0582 -35.541
rfingers 7.12502
rthumb 12.073 -65.1727
lclavicle 2.71357e-014 -2.38542e-015
lhumerus -19.305 -9.45018 86.4005
lradius 42.3675
lwrist 8.32434
lhand -22.1675 -18.7018
lfingers 7.12502
lthumb 4.247 11.2356
rfemur -48.255 -7.47517 22.4355
rtibia 28.4165
rfoot -12.1727 -5.53379
rtoes -12.5501
lfemur -11.7354 4.05992 -24.2293
ltibia 26.215
lfoot -27.1589 -7.40967
ltoes -10.1611
319
root 0.903109 16.1219 24.6405 15.9554 2.70312 2.68974
lowerback -13.7835 -2.03565 -2.87897
upperback -4.40965 -2.31017 0.214739
thorax 3.19455 -1.14277 1.47128
lowerneck -3.56083 -1.57018 -1.16979
upperneck 10.4354 -2.34784 3.07992
head 4.10947 -1.06911 1.12587
rclavicle 1.75552e-014 3.18055e-015
rhumerus -92.7672 -38.8094 -1.21958
rradius 10.6922
rwrist 61.9339
rhand -14.1634 -35.296
rfingers 7.12502
rthumb 11.9715 -64.9337
lclavicle 1.75552e-014 3.18055e-015
lhumerus -18.2551 -9.79391 86.1751
lradius 43.556
lwrist 7.39013
lhand -21.8998 -18.5516
lfingers 7.12502
lthumb 4.5055 11.3805
rfemur -47.7379 -7.75608 22.3889
rtibia 24.4504
rfoot -11.2853 -4.88804
rtoes -13.4921
lfemur -10.4659 4.18254 -24.134
ltibia 25.6944
lfoot -27.5347 -7.04028
ltoes -12.5815
320
root 0.890035 16.0763 24.8601 15.9512 3.14399 2.81596
lowerback -13.9363 -2.11738 -2.92458
upperback -4.25546 -2.40384 0.212016
thorax 3.4451 -1.19322 1.47048
lowerneck -3.66608 -1.68472 -1.2521
upperneck 10.2311 -2.50499 3.22954
head 4.06615 -1.14375 1.18207
rclavicle -1.37876e-014 -3.77691e-015
rhumerus -91.9185 -38.2904 -2.84098
rradius 10.7641
rwrist 60.0734
rhand -14.5212 -35.0487
rfingers 7.12502
rthumb 11.6266 -64.7062
lclavicle -1.37876e-014 -3.77691e-015
lhumerus -17.3638 -10.1325 85.973
lradius 45.0176
lwrist 6.89228
lhand -21.5736 -18.9527
lfingers 7.12502
lthumb 4.82047 10.9725
rfemur -47.4138 -8.00169 22.2939
rtibia 20.6155
rfoot -9.85485 -4.49733
rtoes -17.8764
lfemur -9.20316 4.15059 -23.9919
ltibia 25.1501
lfoot -27.8178 -6.92404
ltoes -14.0978
321
root 0.877289 16.0046 25.0831 15.9701 3.65431 2.86649
lowerback -14.1655 -2.21225 -2.85169
upperback -4.08767 -2.52911 0.225027
thorax 3.74912 -1.25961 1.4104
lowerneck -3.88888 -1.75979 -1.21478
upperneck 10.0655 -2.60751 3.27302
head 4.05414 -1.19014 1.18338
rclavicle 2.13538e-014 -6.16232e-015
rhumerus -91.2802 -37.8537 -4.11862
rradius 10.8139
rwrist 58.5005
rhand -14.7222 -34.8003
rfingers 7.12502
rthumb 11.4327 -64.4686
lclavicle 2.13538e-014 -6.16232e-015
lhumerus -16.4803 -10.6358 85.8389
lradius 46.35
lwrist 7.2207
lhand -21.4828 -19.2711
lfingers 7.12502
lthumb 4.90818 10.6521
rfemur -47.8855 -8.21799 22.1979
rtibia 18.0095
rfoot -9.111 -2.98906
rtoes -15.4994
lfemur -7.93009 3.96285 -23.734
ltibia 24.1867
lfoot -27.7687 -6.89456
ltoes -16.4998
322
root 0.866079 16.0042 25.3027 16.0675 4.10153 3.03264
lowerback -14.411 -2.33328 -2.9037
upperback -3.99668 -2.67138 0.227227
thorax 3.98663 -1.33308 1.40617
lowerneck -4.0908 -1.80166 -1.09579
upperneck 10.0545 -2.66265 3.17937
head 4.08725 -1.21514 1.12689
rclavicle 4.04403e-015 -4.17448e-015
rhumerus -91.2193 -37.4657 -4.30409
rradius 10.7771
rwrist 57.8885
rhand -14.6662 -34.7119
rfingers 7.12502
rthumb 11.4867 -64.3771
lclavicle 4.04403e-015 -4.17448e-015
lhumerus -15.5653 -11.1517 85.6774
lradius 47.4637
lwrist 7.73963
lhand -21.3863 -19.3724
lfingers 7.12502
lthumb 5.00132 10.5485
rfemur -48.0079 -9.35321 22.8652
rtibia 16.0067
rfoot -9.49179 -0.466405
rtoes -12.8757
lfemur -6.92515 3.59332 -23.6358
ltibia 23.2144
lfoot -27.5069 -6.82684
ltoes -19.2646
323
root 0.853672 16.0682 25.5147 16.1945 4.553 3.25462
lowerback -14.5163 -2.47352 -3.01382
upperback -3.97759 -2.8363 0.232061
thorax 4.07673 -1.41591 1.43895
lowerneck -4.18932 -1.85291 -0.951204
upperneck 10.0039 -2.71773 2.94665
head 4.08193 -1.24674 1.01945
rclavicle 3.10601e-017 5.1684e-015
rhumerus -91.3694 -37.0993 -4.11719
rradius 10.7624
rwrist 57.6222
rhand -14.3535 -34.56
rfingers 7.12502
rthumb 11.7882 -64.2082
lclavicle 3.10601e-017 5.1684e-015
lhumerus -14.9401 -11.3317 85.5476
lradius 48.6809
lwrist 7.71782
lhand -21.2933 -19.4948
lfingers 7.12502
lthumb 5.09116 10.4241
rfemur -47.4343 -10.1604 23
rtibia 15.1229
rfoot -11.3077 1.35547
rtoes -8.37987
lfemur -5.80537 3.06964 -23.6188
ltibia 22.0425
lfoot -26.9526 -6.71143
ltoes -21.0838
324
root 0.84053 16.0422 25.728 16.3857 4.98666 3.46248
lowerback -14.5608 -2.61527 -3.06796
upperback -4.03808 -3.01499 0.248174
thorax 4.04927 -1.50331 1.45335
lowerneck -4.27937 -1.88158 -1.02066
upperneck 9.98943 -2.74923 2.93804
head 4.09661 -1.26463 1.02678
rclavicle 1.36167e-014 -1.78906e-015
rhumerus -91.6644 -36.7193 -3.64451
rradius 10.7236
rwrist 57.727
rhand -14.0396 -34.3006
rfingers 7.12502
rthumb 12.0909 -63.9312
lclavicle 1.36167e-014 -1.78906e-015
lhumerus -14.429 -11.3762 85.4188
lradius 49.8205
lwrist 7.52868
lhand -21.28 -19.919
lfingers 7.12502
lthumb 5.10395 9.99953
rfemur -48.5347 -10.5198 22.8808
rtibia 15.5683
rfoot -12.1863 2.93765
rtoes -5.16693
lfemur -4.38936 2.5765 -23.5749
ltibia 20.7033
lfoot -26.4433 -6.58534
ltoes -22.4286
325
root 0.828176 16.0157 25.9446 16.55 5.32986 3.65292
lowerback -14.5959 -2.76051 -3.11223
upperback -4.10368 -3.20152 0.290132
thorax 4.01301 -1.59445 1.48823
lowerneck -4.54116 -1.83269 -1.13578
upperneck 10.123 -2.67843 2.95437
head 4.19766 -1.23006 1.05528
rclavicle 2.81653e-014 3.37934e-015
rhumerus -91.0344 -36.284 -4.60685
rradius 10.7393
rwrist 56.7567
rhand -13.9058 -34.0834
rfingers 7.12502
rthumb 12.2199 -63.7064
lclavicle 2.81653e-014 3.37934e-015
lhumerus -13.9697 -11.4323 85.2552
lradius 50.8914
lwrist 7.53168
lhand -21.2539 -20.1783
lfingers 7.12502
lthumb 5.12923 9.73964
rfemur -49.5069 -11.2108 23.1399
rtibia 15.9076
rfoot -13.0408 4.66242
rtoes -8.20075
lfemur -3.03424 1.98209 -23.549
ltibia 19.7334
lfoot -26.2714 -6.06244
ltoes -24.0953
326
root 0.818913 15.9921 26.1702 16.6946 5.65222 3.5921
lowerback -14.7768 -2.83689 -2.82105
upperback -4.17088 -3.34303 0.375836
thorax 4.03637 -1.6623 1.38241
lowerneck -4.57905 -1.82725 -1.27197
upperneck 10.1158 -2.65929 2.95565
head 4.20493 -1.22555 1.08082
rclavicle 1.19022e-014 -1.63003e-014
rhumerus -90.4245 -35.8531 -5.47673
rradius 10.7361
rwrist 55.9188
rhand -13.7158 -34.1833
rfingers 7.12502
rthumb 12.4032 -63.7953
lclavicle 1.19022e-014 -1.63003e-014
lhumerus -13.7897 -11.2584 85.2277
lradius 52.0025
lwrist 7.46576
lhand -21.2464 -20.3722
lfingers 7.12502
lthumb 5.13645 9.54551
rfemur -49.3804 -11.4177 23.2324
rtibia 14.9218
rfoot -13.4758 5.88678
rtoes -9.1728
lfemur -2.27808 1.58781 -23.2462
ltibia 19.7996
lfoot -26.2511 -5.83916
ltoes -25.1319
